<svg xmlns="http://www.w3.org/2000/svg" width="32" height="32" viewBox="0 0 32 32">
<g clip-path="url(#clip0_15291_11473)">
<path d="M32 15.9999C32 24.8364 24.8365 31.9999 16 31.9999C7.1635 31.9999 0 24.8364 0 15.9999C0 16.0038 16 0.00168896 16 -6.10352e-05C24.8365 -6.10352e-05 32 7.16344 32 15.9999Z" fill="#0052B4"/>
<path d="M15.957 16.0008H16.0006C16.0006 15.9861 16.0006 15.9719 16.0006 15.9572C15.9861 15.9718 15.9716 15.9863 15.957 16.0008Z" fill="#F0F0F0"/>
<path d="M15.9995 8.34783C15.9995 5.53252 15.9995 3.68783 15.9995 1.52588e-05H15.9968C7.16145 0.00151526 -0.000488281 7.16433 -0.000488281 16H8.34732V11.2993L13.048 16H15.9568C15.971 15.9858 15.9853 15.9715 15.9996 15.9572C15.9996 14.8793 15.9996 13.9175 15.9996 13.0486L11.2988 8.34783H15.9995Z" fill="#F0F0F0"/>
<path d="M8.09442 2.08694C5.59198 3.51188 3.51155 5.59226 2.08667 8.0947V16H6.26061V6.26101V6.26088H15.9997C15.9997 4.94445 15.9997 3.69032 15.9997 2.08694H8.09442Z" fill="#D80027"/>
<path d="M15.9996 14.0324L10.3149 8.34787H8.34741V8.34799L15.9995 16H15.9996C15.9996 16 15.9996 14.6433 15.9996 14.0324Z" fill="#D80027"/>
<path d="M18.0867 8.34778V15.9999C18.0867 19.7274 22.9562 20.8695 22.9562 20.8695C22.9562 20.8695 27.8258 19.7274 27.8258 15.9999V8.34778H18.0867Z" fill="#338AF3"/>
<path d="M18.0867 15.9999C18.0867 19.7274 22.9562 20.8695 22.9562 20.8695C22.9562 20.8695 27.8258 19.7274 27.8258 15.9999H18.0867Z" fill="#A2001D"/>
<path d="M25.0433 11.8262H23.6519V10.4348H22.2606V11.8262H20.8694V13.2174H22.2606V17.3913H23.6519V13.2174H25.0433V11.8262Z" fill="black"/>
</g>
<defs>
<clipPath id="clip0_15291_11473">
<rect width="32" height="32" fill="white"/>
</clipPath>
</defs>
</svg>
