<svg fill="none" xmlns="http://www.w3.org/2000/svg" width="32" height="32" viewBox="0 0 32 32">
<path d="M10.5 13.9987V17.9987M14.5 13.9987V17.9987M18.5 13.9987V17.9987M10.8 21.9987H18.2C19.8802 21.9987 20.7202 21.9987 21.362 21.6717C21.9265 21.3841 22.3854 20.9251 22.673 20.3606C23 19.7189 23 18.8788 23 17.1987V14.7987C23 13.1185 23 12.2784 22.673 11.6367C22.3854 11.0722 21.9265 10.6133 21.362 10.3256C20.7202 9.99866 19.8802 9.99866 18.2 9.99866H10.8C9.11984 9.99866 8.27976 9.99866 7.63803 10.3256C7.07354 10.6133 6.6146 11.0722 6.32698 11.6367C6 12.2784 6 13.1185 6 14.7987V17.1987C6 18.8788 6 19.7189 6.32698 20.3606C6.6146 20.9251 7.07354 21.3841 7.63803 21.6717C8.27976 21.9987 9.11984 21.9987 10.8 21.9987Z" stroke="black" stroke-width="2" stroke-linecap="round" stroke-linejoin="round"/>
</svg>
